<?xml version="1.0" encoding="utf-8"?>
<!DOCTYPE svg PUBLIC "-//W3C//DTD SVG 1.1//EN" "http://www.w3.org/Graphics/SVG/1.1/DTD/svg11.dtd">
<svg xmlns="http://www.w3.org/2000/svg" xmlns:xlink="http://www.w3.org/1999/xlink" version="1.1" id="Ebene_1" x="0px" y="0px" width="120px" height="120px" viewBox="0 0 120 120" style="enable-background:new 0 0 120 120;" xml:space="preserve">
<metadata><?xpacket begin="﻿" id="W5M0MpCehiHzreSzNTczkc9d"?>
<x:xmpmeta xmlns:x="adobe:ns:meta/" x:xmptk="Adobe XMP Core 5.6-c111 79.158366, 2015/09/25-01:12:00        ">
   <rdf:RDF xmlns:rdf="http://www.w3.org/1999/02/22-rdf-syntax-ns#">
      <rdf:Description rdf:about=""/>
   </rdf:RDF>
</x:xmpmeta>
                                                                                                    
                                                                                                    
                                                                                                    
                                                                                                    
                                                                                                    
                                                                                                    
                                                                                                    
                                                                                                    
                                                                                                    
                                                                                                    
                                                                                                    
                                                                                                    
                                                                                                    
                                                                                                    
                                                                                                    
                                                                                                    
                                                                                                    
                                                                                                    
                                                                                                    
                                                                                                    
                           
<?xpacket end="w"?></metadata>
<style type="text/css">
	.st0{fill:#CC2929;}
	.st1{fill:#666652;}
</style>
<g>
	<path class="st0" d="M0,98.7V76.5h5.2v22.2H0z"/>
	<path class="st0" d="M17.6,98.7V87.9c0-1.4-0.8-2.2-2.3-2.2c-0.7,0-1.5,0.2-1.9,0.3v12.6h-5V83c1.8-0.7,4-1.2,6.9-1.2   c5.2,0,7.4,2,7.4,5.6v11.3H17.6z"/>
	<path class="st0" d="M35.2,98.7V87.9c0-1.4-0.8-2.2-2.3-2.2c-0.7,0-1.5,0.2-1.9,0.3v12.6h-5V83c1.8-0.7,4-1.2,6.9-1.2   c5.2,0,7.4,2,7.4,5.6v11.3H35.2z"/>
	<path class="st0" d="M50.1,99.1c-4.9,0-7.7-3.7-7.7-8.7c0-4.9,2.8-8.6,7.7-8.6c4.9,0,7.7,3.7,7.7,8.6   C57.9,95.3,55.1,99.1,50.1,99.1z M50.1,85.7c-1.8,0-2.7,1.6-2.7,4.6c0,3,0.9,4.7,2.7,4.7c1.8,0,2.7-1.6,2.7-4.7   C52.8,87.3,51.9,85.7,50.1,85.7z"/>
	<path class="st1" d="M67.3,90.5c-0.6,0-1.3-0.1-1.7-0.1v8.3h-5.1V77.3c1.8-0.8,4.1-1.2,6.7-1.2c5.7,0,8.9,2.9,8.9,7.3   C76.1,87.5,73.2,90.5,67.3,90.5z M67.3,80c-0.6,0-1.3,0.1-1.7,0.2v6.3c0.3,0.1,0.9,0.1,1.5,0.1c2.6,0,3.9-1.2,3.9-3.3   C71,81.1,69.7,80,67.3,80z"/>
	<path class="st1" d="M84.2,99.1c-5.2,0-7.8-1.9-7.8-5.5c0-4.4,4.5-5.4,9.4-5.7v-0.6c0-1.3-0.9-1.9-2.6-1.9c-1.6,0-3.5,0.5-4.7,1   L77.3,83c1.5-0.6,3.9-1.2,6.5-1.2c4.5,0,6.8,1.7,6.8,6.1v10C89.3,98.5,86.8,99.1,84.2,99.1z M85.8,91.1c-2.7,0.1-4.8,0.4-4.8,2.4   c0,1.4,1.1,2.1,2.9,2.1c0.7,0,1.5-0.1,1.8-0.2V91.1z"/>
	<path class="st1" d="M102.2,86.1c-0.5-0.2-1.2-0.3-1.9-0.3c-0.6,0-1.3,0.1-1.7,0.3v12.6h-5V83c1.8-0.7,4.2-1.2,7.2-1.2   c1,0,1.8,0.1,2.4,0.2L102.2,86.1z"/>
	<path class="st1" d="M114.4,98.7l-5-8.3h-0.1v8.3h-5V74.6h5v14.6h0.1l4.6-7.1h5.7l-5.1,7.7l5.6,8.8H114.4z"/>
</g>
<g>
	<g>
		<rect x="30.7" y="5.5" class="st0" width="57.5" height="57.7"/>
	</g>
	<path class="st1" d="M109.8,0c-7.9,19.7-23.3,33.4-46,40.6c-16.5,5.3-36.5,7.1-59.4,5.4l0,0.3c0.1,0,0.2,0,0.3,0.1   c3.9,0.8,14.8,2.8,28.3,2.8c6,0,12.6-0.4,19.2-1.5c13.3-2.1,24.7-6.6,33.9-13.2c11.4-8.2,19.5-19.8,24-34.4L109.8,0z"/>
</g>
<g>
	<path class="st1" d="M24.1,120c-1.6,0-2.5-0.3-3.2-0.8l0.5-1.3c0.5,0.3,1.3,0.7,2.4,0.7c1.6,0,2.6-1,2.6-2.6c0-1.2-0.7-2-2.4-2.7   c-2.3-0.9-3-2.4-3-3.7c0-2.1,1.5-3.9,3.9-3.9c1.3,0,2.2,0.3,2.9,0.8l-0.4,1.2c-0.5-0.3-1.3-0.7-2.2-0.7c-1.5,0-2.3,1-2.3,2.5   c0,1.4,1.1,2.1,2.3,2.6c2.8,1.1,3.2,2.7,3.2,3.9C28.3,118.3,26.5,120,24.1,120z"/>
	<path class="st1" d="M34.7,120c-2.7,0-3.9-1.4-3.9-3.6v-7.6h1.8v7.7c0,1.3,0.7,2.3,2.2,2.3c0.9,0,1.5-0.1,2-0.4v-9.5h1.8v10.3   C37.7,119.6,36.4,120,34.7,120z"/>
	<path class="st1" d="M42.4,106.7c-0.6,0-1.1-0.4-1.1-1c0-0.5,0.5-1,1.1-1c0.6,0,1,0.4,1,1C43.4,106.2,43,106.7,42.4,106.7z    M41.5,119.8v-11h1.8v11H41.5z"/>
	<path class="st1" d="M48.4,119.9c-1.2,0-2.2-0.3-2.8-0.8l0.5-1.2c0.4,0.3,1.2,0.7,2.1,0.7c1.2,0,2-0.8,2-1.9c0-1.1-0.6-1.6-1.8-2.1   c-2.1-0.8-2.6-1.9-2.6-3.1c0-1.6,1.3-3,3.3-3c1.1,0,2,0.4,2.6,0.8l-0.5,1.1c-0.3-0.2-1-0.6-1.8-0.6c-1.2,0-1.8,0.8-1.8,1.7   c0,1.1,0.8,1.6,1.8,2c2.1,0.8,2.7,2,2.7,3.2C52.1,118.4,50.6,119.9,48.4,119.9z"/>
	<path class="st1" d="M56.4,119.9c-1.2,0-2.2-0.3-2.8-0.8l0.5-1.2c0.4,0.3,1.2,0.7,2.1,0.7c1.2,0,2-0.8,2-1.9c0-1.1-0.6-1.6-1.8-2.1   c-2.1-0.8-2.6-1.9-2.6-3.1c0-1.6,1.3-3,3.3-3c1.1,0,2,0.4,2.6,0.8l-0.5,1.1c-0.3-0.2-1-0.6-1.8-0.6c-1.2,0-1.8,0.8-1.8,1.7   c0,1.1,0.8,1.6,1.8,2c2.1,0.8,2.7,2,2.7,3.2C60.1,118.4,58.6,119.9,56.4,119.9z"/>
	<path class="st1" d="M63.7,115c0.2,2.5,1.4,3.7,3.3,3.7c1.2,0,2.1-0.3,2.7-0.6l0.5,1.2c-0.7,0.4-1.8,0.8-3.3,0.8   c-2.9,0-4.9-1.8-4.9-5.7c0-3.7,1.8-5.7,4.4-5.7c2.6,0,4.2,1.7,4.2,5.4L63.7,115z M66.4,109.8c-1.6,0-2.8,1.3-2.7,4.3l5.2-0.8   C68.9,110.7,67.9,109.8,66.4,109.8z"/>
	<path class="st1" d="M81.3,120c-1.6,0-2.5-0.3-3.2-0.8l0.5-1.3c0.5,0.3,1.3,0.7,2.4,0.7c1.6,0,2.6-1,2.6-2.6c0-1.2-0.7-2-2.4-2.7   c-2.3-0.9-3-2.4-3-3.7c0-2.1,1.5-3.9,3.9-3.9c1.3,0,2.2,0.3,2.9,0.8l-0.4,1.2c-0.5-0.3-1.3-0.7-2.2-0.7c-1.5,0-2.3,1-2.3,2.5   c0,1.4,1.1,2.1,2.3,2.6c2.8,1.1,3.2,2.7,3.2,3.9C85.5,118.3,83.7,120,81.3,120z"/>
	<path class="st1" d="M96.2,119.8l-1.3-4.2h-4.8l-1.4,4.2h-1.7l4.7-14h1.7l4.7,14H96.2z M93,109.2c-0.3-1.1-0.4-1.7-0.4-1.7h0   c0,0-0.1,0.6-0.4,1.7l-1.7,5.3h4.2L93,109.2z"/>
</g>
</svg>
